<svg width="20" height="21" viewBox="0 0 20 21" fill="none" xmlns="http://www.w3.org/2000/svg">
  <path fill-rule="evenodd" clip-rule="evenodd" d="M9.02919 10.5055L9.03046 10.8006C9.0406 11.971 9.11115 13.0152 9.23283 13.677C9.23283 13.6889 9.36555 14.3452 9.4501 14.5637C9.58282 14.8795 9.82282 15.1475 10.1237 15.3173C10.3646 15.4385 10.6174 15.5 10.8819 15.5C11.0899 15.4904 11.4328 15.3857 11.6776 15.298L11.881 15.22C13.2282 14.6849 15.8037 12.9362 16.79 11.8668L16.8627 11.7921L17.1873 11.4418C17.3918 11.1738 17.5 10.8461 17.5 10.4936C17.5 10.1778 17.4036 9.86203 17.2109 9.60685C17.1532 9.52417 17.0603 9.41811 16.9776 9.32849L16.6617 8.99782C15.5746 7.89643 13.221 6.35153 12.001 5.83964C12.001 5.82862 11.2428 5.51193 10.8819 5.5H10.8337C10.2801 5.5 9.76282 5.81577 9.49828 6.32614C9.42601 6.46567 9.35669 6.73898 9.30396 6.97903L9.20919 7.43226C9.10101 8.1611 9.02919 9.27914 9.02919 10.5055ZM3.75271 9.23472C3.0609 9.23472 2.5 9.80108 2.5 10.4996C2.5 11.1982 3.0609 11.7645 3.75271 11.7645L6.8354 11.4919C7.37812 11.4919 7.81812 11.0486 7.81812 10.4996C7.81812 9.95162 7.37812 9.50734 6.8354 9.50734L3.75271 9.23472Z" fill="#C3138B"/>
</svg>
