<svg width="30" height="34" viewBox="0 0 30 34" fill="none" xmlns="http://www.w3.org/2000/svg">
    <mask id="ku8alligca" fill="#fff">
        <path fill-rule="evenodd" clip-rule="evenodd" d="m15.48.195 3.636 2.214A5.489 5.489 0 0 0 21.7 6.324a5.489 5.489 0 0 0 4.664.498L30 9.036l-15.083 24.77-3.074-1.873a5.5 5.5 0 0 0-8.371-5.097L.397 24.964 15.48.194z"/>
    </mask>
    <path d="m19.116 2.409.99-.143-.067-.466-.403-.245-.52.854zM15.48.195 16-.66l-.854-.52-.52.854.854.52zm10.884 6.627.52-.854-.402-.245-.445.154.327.945zM30 9.036l.854.52.52-.854-.854-.52-.52.854zm-15.083 24.77-.52.854.854.52.52-.855-.854-.52zm-3.074-1.873-.998-.074-.045.61.522.318.52-.854zm-8.371-5.097-.52.854.522.318.522-.32-.524-.852zM.397 24.964l-.854-.52-.52.854.854.52.52-.854zm19.24-23.41L16-.658l-1.04 1.708 3.636 2.214 1.04-1.708zM22.22 5.47a4.489 4.489 0 0 1-2.114-3.204l-1.98.286a6.489 6.489 0 0 0 3.054 4.626l1.04-1.708zm3.817.407a4.489 4.489 0 0 1-3.817-.407l-1.04 1.708a6.489 6.489 0 0 0 5.511.59l-.654-1.89zm4.483 2.305-3.636-2.214-1.04 1.708L29.48 9.89l1.04-1.708zM15.771 34.325 30.854 9.556l-1.708-1.04-15.083 24.77 1.708 1.04zm-4.449-1.538 3.075 1.873 1.04-1.709-3.074-1.872-1.04 1.708zm-2.625-5.11a4.5 4.5 0 0 1 2.148 4.182l1.995.148a6.5 6.5 0 0 0-3.102-6.039l-1.04 1.708zm-4.701.01a4.5 4.5 0 0 1 4.701-.01l1.04-1.709a6.5 6.5 0 0 0-6.789.016l1.048 1.704zm-4.119-1.87 3.075 1.873 1.04-1.708L.917 24.11l-1.04 1.708zM14.627-.324-.458 24.444l1.708 1.04L16.334.714l-1.708-1.04z" fill="#fff" mask="url(#ku8alligca)"/>
    <path stroke="#fff" stroke-dasharray="2 2" d="m11.059 7.455 14.52 8.841"/>
</svg>
