<svg width="30" height="30" viewBox="0 0 30 30" fill="none" xmlns="http://www.w3.org/2000/svg">
    <path fill-rule="evenodd" clip-rule="evenodd" d="M15 3.75c-3.056 0-3.438.013-4.638.067-1.198.055-2.016.246-2.732.524a5.51 5.51 0 0 0-1.992 1.297A5.518 5.518 0 0 0 4.34 7.63c-.276.716-.468 1.535-.522 2.733-.054 1.199-.068 1.58-.068 4.637 0 3.056.013 3.438.067 4.638.055 1.198.246 2.016.524 2.731a5.51 5.51 0 0 0 1.297 1.993A5.518 5.518 0 0 0 7.63 25.66c.716.277 1.534.468 2.732.523 1.2.054 1.582.067 4.638.067 3.055 0 3.438-.013 4.638-.067 1.198-.055 2.016-.246 2.731-.524a5.51 5.51 0 0 0 1.993-1.297 5.517 5.517 0 0 0 1.298-1.992c.277-.716.468-1.534.523-2.732.054-1.2.067-1.583.067-4.638 0-3.056-.013-3.438-.067-4.638-.055-1.198-.246-2.016-.524-2.732a5.514 5.514 0 0 0-1.297-1.992A5.518 5.518 0 0 0 22.37 4.34c-.716-.276-1.535-.468-2.733-.522-1.199-.054-1.58-.068-4.637-.068zm0 2.027c3.004 0 3.36.011 4.547.066 1.096.05 1.691.232 2.088.387.525.204.9.448 1.294.841.394.394.638.769.84 1.294.155.396.338.992.389 2.088.053 1.187.065 1.543.065 4.547 0 3.004-.011 3.36-.066 4.547-.05 1.096-.232 1.691-.387 2.088-.18.489-.468.931-.841 1.294-.363.373-.805.66-1.294.84-.397.155-.992.338-2.088.389-1.187.053-1.543.065-4.547.065-3.005 0-3.36-.011-4.546-.066-1.097-.05-1.693-.232-2.09-.387a3.485 3.485 0 0 1-1.293-.841 3.486 3.486 0 0 1-.84-1.294c-.155-.397-.338-.992-.388-2.088-.054-1.187-.066-1.543-.066-4.547 0-3.004.011-3.36.066-4.546.05-1.097.232-1.693.387-2.09.204-.524.448-.9.841-1.293.363-.373.805-.66 1.294-.84.396-.155.992-.338 2.088-.388 1.187-.054 1.543-.066 4.547-.066z" fill="#fff"/>
    <path fill-rule="evenodd" clip-rule="evenodd" d="M15 18.754a3.754 3.754 0 1 1 0-7.509 3.754 3.754 0 0 1 0 7.509zm0-9.537a5.783 5.783 0 1 0 0 11.565 5.783 5.783 0 0 0 0-11.565zm7.465-.105a1.367 1.367 0 1 1-2.734 0 1.367 1.367 0 0 1 2.734 0z" fill="#fff"/>
</svg>
