<svg width="28" height="28" viewBox="0 0 28 28" fill="none" xmlns="http://www.w3.org/2000/svg">
    <path d="M23.278 9.24c.014.206.014.411.014.619 0 6.326-4.815 13.62-13.62 13.62v-.003a13.552 13.552 0 0 1-7.339-2.146 9.612 9.612 0 0 0 7.085-1.984 4.793 4.793 0 0 1-4.472-3.325 4.77 4.77 0 0 0 2.161-.082 4.787 4.787 0 0 1-3.84-4.692v-.06c.665.37 1.41.575 2.173.598a4.793 4.793 0 0 1-1.482-6.392 13.587 13.587 0 0 0 9.866 5.002 4.792 4.792 0 0 1 8.158-4.366 9.606 9.606 0 0 0 3.04-1.163 4.805 4.805 0 0 1-2.104 2.648 9.522 9.522 0 0 0 2.749-.754 9.726 9.726 0 0 1-2.39 2.48z" fill="#fff"/>
</svg>
